# xmcd
#
# Track frame offsets:
#	150
#	19656
#	34794
#	52690
#	70879
#	91955
#	107904
#	124321
#	141071
#	152555
#	170441
#
# Disc length: 2492 seconds
#
# Revision: 1
# Processed by: cddbd v1.5.1PL0 Copyright (c) Steve Scherf et al.
# Submitted via: EasyCDDAExtractor 6.5.7.1
#
DISCID=8909ba0b
DTITLE=Cesar Passarinho - Assim no Más
DYEAR=1989
DGENRE=Gaúcha
TTITLE0=Fim de Mês
TTITLE1=Lado a Lado
TTITLE2=Estrelas de Peão
TTITLE3=Guri
TTITLE4=Manhãs de Verão
TTITLE5=Não há Pandorgas no Céu
TTITLE6=Assim no Más
TTITLE7=Sonho de Seresteiro
TTITLE8=Clarão Rural
TTITLE9=Menina Jardineira
TTITLE10=Que Homens são Esse?
EXTD=
EXTT0=
EXTT1=
EXTT2=
EXTT3=
EXTT4=
EXTT5=
EXTT6=
EXTT7=
EXTT8=
EXTT9=
EXTT10=
PLAYORDER=
